HIERARCHY
ROOT hip
{
	OFFSET 0.000000 0.000000 0.000000
	CHANNELS 6 Xposition Yposition Zposition Zrotation Yrotation Xrotation 
	JOINT lhipjoint
	{
		OFFSET 0.000000 0.000000 0.000000
		CHANNELS 3 Zrotation Yrotation Xrotation
		JOINT lfemur
		{
			OFFSET 1.363060 -1.794630 0.839290
			CHANNELS 3 Zrotation Yrotation Xrotation
			JOINT ltibia
			{
				OFFSET 2.448110 -6.726130 0.000000
				CHANNELS 3 Zrotation Yrotation Xrotation
				JOINT lfoot
				{
					OFFSET 2.562200 -7.039590 0.000000
					CHANNELS 3 Zrotation Yrotation Xrotation
					JOINT ltoes
					{
						OFFSET 0.157640 -0.433110 2.322550
						CHANNELS 3 Zrotation Yrotation Xrotation
						End Site
						{
							OFFSET 0.000000 0.000000 0.000000
						}
					}
				}
			}
		}
	}
	JOINT rhipjoint
	{
		OFFSET 0.000000 0.000000 0.000000
		CHANNELS 3 Zrotation Yrotation Xrotation
		JOINT rfemur
		{
			OFFSET -1.305520 -1.794630 0.839290
			CHANNELS 3 Zrotation Yrotation Xrotation
			JOINT rtibia
			{
				OFFSET -2.542530 -6.985550 0.000000
				CHANNELS 3 Zrotation Yrotation Xrotation
				JOINT rfoot
				{
					OFFSET -2.568260 -7.056230 0.000000
					CHANNELS 3 Zrotation Yrotation Xrotation
					JOINT rtoes
					{
						OFFSET -0.164730 -0.452590 2.363150
						CHANNELS 3 Zrotation Yrotation Xrotation
						End Site
						{
							OFFSET 0.000000 0.000000 0.000000
						}
					}
				}
			}
		}
	}
	JOINT lowerback
	{
		OFFSET 0.000000 0.000000 0.000000
		CHANNELS 3 Zrotation Yrotation Xrotation
		JOINT upperback
		{
			OFFSET 0.028270 2.035590 -0.193380
			CHANNELS 3 Zrotation Yrotation Xrotation
			JOINT thorax
			{
				OFFSET 0.056720 2.048850 -0.042750
				CHANNELS 3 Zrotation Yrotation Xrotation
				JOINT lowerneck
				{
					OFFSET 0.000000 0.000000 0.000000
					CHANNELS 3 Zrotation Yrotation Xrotation
					JOINT upperneck
					{
						OFFSET -0.054170 1.746240 0.172020
						CHANNELS 3 Zrotation Yrotation Xrotation
						JOINT head
						{
							OFFSET 0.104070 1.761360 -0.123970
							CHANNELS 3 Zrotation Yrotation Xrotation
							End Site
							{
								OFFSET 0.000000 0.000000 0.000000
							}
						}
					}
				}
				JOINT lclavicle
				{
					OFFSET 0.000000 0.000000 0.000000
					CHANNELS 3 Zrotation Yrotation Xrotation
					JOINT lhumerus
					{
						OFFSET 3.362410 1.200890 -0.311210
						CHANNELS 3 Zrotation Yrotation Xrotation
						JOINT lradius
						{
							OFFSET 4.983000 -0.000000 -0.000000
							CHANNELS 3 Zrotation Yrotation Xrotation
							JOINT lwrist
							{
								OFFSET 3.483560 -0.000000 -0.000000
								CHANNELS 3 Zrotation Yrotation Xrotation
								JOINT lhand
								{
									OFFSET 0.000000 0.000000 0.000000
									CHANNELS 3 Zrotation Yrotation Xrotation
									JOINT lfingers
									{
										OFFSET 0.715260 -0.000000 -0.000000
										CHANNELS 3 Zrotation Yrotation Xrotation
										End Site
										{
											OFFSET 0.000000 0.000000 0.000000
										}
									}
								}
								JOINT lthumb
								{
									OFFSET 0.000000 0.000000 0.000000
									CHANNELS 3 Zrotation Yrotation Xrotation
									End Site
									{
										OFFSET 0.000000 0.000000 0.000000
									}
								}
							}
						}
					}
				}
				JOINT rclavicle
				{
					OFFSET 0.000000 0.000000 0.000000
					CHANNELS 3 Zrotation Yrotation Xrotation
					JOINT rhumerus
					{
						OFFSET -3.136600 1.374050 -0.404650
						CHANNELS 3 Zrotation Yrotation Xrotation
						JOINT rradius
						{
							OFFSET -5.241900 -0.000000 -0.000000
							CHANNELS 3 Zrotation Yrotation Xrotation
							JOINT rwrist
							{
								OFFSET -3.444170 -0.000000 -0.000000
								CHANNELS 3 Zrotation Yrotation Xrotation
								JOINT rhand
								{
									OFFSET 0.000000 0.000000 0.000000
									CHANNELS 3 Zrotation Yrotation Xrotation
									JOINT rfingers
									{
										OFFSET -0.622530 -0.000000 -0.000000
										CHANNELS 3 Zrotation Yrotation Xrotation
										End Site
										{
											OFFSET 0.000000 0.000000 0.000000
										}
									}
								}
								JOINT rthumb
								{
									OFFSET 0.000000 0.000000 0.000000
									CHANNELS 3 Zrotation Yrotation Xrotation
									End Site
									{
										OFFSET 0.000000 0.000000 0.000000
									}
								}
							}
						}
					}
				}
			}
		}
	}
}
MOTION
Frames: 8
Frame Time: 0.008333
0.706285 20.072291 5.069858 162.969713 21.097818 166.226209 -1.317317 0.041812 -2.884686 -2.188828 -27.868755 -86.434866 24.921406 17.670291 105.077775 0.328012 -0.466518 1.546051 1.317800 -7.270800 -20.520000 -0.575055 -3.692856 2.198276 0.891605 3.539041 -5.311464 -0.097276 -4.900283 16.115199 -2.347789 15.545962 17.274425 -0.038000 1.258700 -3.460900 19.080858 -0.613313 39.668192 0.971466 12.728349 2.374351 -2.330508 11.660480 12.144361 -2.102089 -2.495030 0.053761 -25.125185 -1.547530 11.895261 -6.638200 -2.587400 2.928300 0.925659 4.813793 1.912364 -65.390930 3.877842 70.217613 15.028564 -35.459743 -3.063554 -0.652106 -0.381148 12.801422 23.216326 -19.851978 -8.241800 -7.125000 0.000000 0.000000 -2.892000 9.175200 2.397000 4.997122 -0.577405 -0.852381 31.667796 69.477520 -3.320373 -146.312223 42.152573 -103.482674 0.085601 -1.247982 -16.736704 2.370381 9.261692 0.481900 7.125000 0.000000 0.000000 20.711800 -19.755700 13.386600 
0.707822 20.069523 5.077545 162.806346 20.953184 166.219628 -1.291007 0.037805 -2.893906 -2.113578 -27.871433 -86.922265 24.904582 17.685917 105.023172 0.343951 -0.573407 1.632968 1.262400 -7.122200 -20.077800 -0.589242 -3.683498 2.190004 0.691339 3.467999 -5.525430 -0.121722 -4.999446 16.362856 -2.355066 15.689248 17.211053 -0.045200 1.372300 -3.773900 18.998917 -0.768006 39.844769 0.966961 12.588908 2.402505 -2.350995 11.615711 12.190561 -2.010859 -2.455103 0.059850 -25.369611 -1.511788 11.713628 -6.743200 -2.555700 2.855700 0.910282 4.854191 1.881625 -65.304853 3.898920 69.934322 14.803773 -35.187412 -2.978968 -0.659743 -0.391492 13.080195 23.301795 -19.885188 -8.282300 -7.125000 0.000000 0.000000 -2.836400 9.144400 2.352500 5.033186 -0.614834 -0.698512 30.815363 69.887695 -4.239939 -146.453528 42.194444 -103.514424 0.072653 -1.258892 -16.718407 2.306874 9.319413 0.475900 7.125000 0.000000 0.000000 20.671000 -19.695300 13.386500 
0.710692 20.063681 5.085949 162.673509 20.796808 166.220987 -1.264019 0.032438 -2.902080 -2.038193 -27.855100 -87.441445 24.920886 17.696422 105.069702 0.357783 -0.668980 1.666969 1.221200 -7.009200 -19.742700 -0.602172 -3.674965 2.183302 0.522786 3.388802 -5.757551 -0.151189 -5.111489 16.653862 -2.361584 15.828551 17.154071 -0.051400 1.462900 -4.023500 18.938351 -0.908479 40.039668 0.962918 12.466327 2.414400 -2.390011 11.571066 12.173315 -1.882953 -2.415857 0.108199 -25.621726 -1.482254 11.546547 -6.862300 -2.525200 2.778800 0.899863 4.884618 1.849223 -65.195371 3.897378 69.756701 14.583956 -34.905396 -2.895341 -0.666969 -0.401615 13.216829 23.306637 -19.902096 -8.286500 -7.125000 0.000000 0.000000 -2.831000 9.140600 2.348300 5.062475 -0.647415 -0.556170 29.994885 70.274881 -5.143960 -146.567812 42.232931 -103.539561 0.064642 -1.272433 -16.677566 2.182748 9.353212 0.457000 7.125000 0.000000 0.000000 20.589500 -19.653200 13.347000 
0.714485 20.054354 5.093739 162.556104 20.650453 166.221389 -1.237184 0.025578 -2.909462 -1.977087 -27.804667 -87.930429 24.945261 17.707031 105.142053 0.372100 -0.767089 1.731564 1.154400 -6.821700 -19.188100 -0.614691 -3.667941 2.176788 0.371334 3.293407 -6.014654 -0.184514 -5.234966 16.978942 -2.367461 15.991310 17.080153 -0.059300 1.570900 -4.321100 18.885997 -1.031521 40.227814 0.955626 12.355910 2.423217 -2.456820 11.534980 12.117185 -1.719980 -2.380552 0.190572 -25.830666 -1.452953 11.371020 -6.972400 -2.484500 2.694800 0.893156 4.899296 1.833699 -65.028161 3.882314 69.621656 14.380769 -34.637869 -2.818982 -0.673236 -0.412525 13.296422 23.309815 -19.899677 -8.281900 -7.125000 0.000000 0.000000 -2.825600 9.157700 2.342800 5.075125 -0.654356 -0.496712 29.724752 70.607417 -5.524902 -146.638918 42.234252 -103.566586 0.059120 -1.282944 -16.460902 2.094900 9.428290 0.445000 7.125000 0.000000 0.000000 20.522300 -19.573500 13.336700 
0.718379 20.046667 5.101323 162.436918 20.488208 166.229333 -1.210333 0.019164 -2.919024 -1.928845 -27.772717 -88.428710 24.976936 17.714600 105.239408 0.389711 -0.886962 1.845865 1.075900 -6.593300 -18.516000 -0.627712 -3.660485 2.169592 0.204807 3.141576 -6.282275 -0.216313 -5.353595 17.291876 -2.376110 16.197274 17.071444 -0.071000 1.719400 -4.730900 18.820031 -1.149729 40.368112 0.951244 12.240588 2.437068 -2.499156 11.494437 12.087281 -1.575619 -2.347512 0.255968 -26.020310 -1.424957 11.188825 -7.071900 -2.444000 2.613300 0.885537 4.916432 1.819704 -64.863918 3.842249 69.499047 14.186821 -34.383265 -2.748248 -0.679967 -0.421896 13.320985 23.244404 -19.900324 -8.253800 -7.125000 0.000000 0.000000 -2.864100 9.179300 2.373500 5.088919 -0.661451 -0.444636 29.530297 70.948097 -5.840382 -146.724950 42.217450 -103.610460 0.055069 -1.294800 -16.256907 1.990687 9.501970 0.429500 7.125000 0.000000 0.000000 20.443700 -19.493500 13.317800 
0.723402 20.040415 5.109318 162.350899 20.340509 166.243716 -1.184678 0.011541 -2.927190 -1.842807 -27.736199 -88.911522 25.012471 17.721098 105.350265 0.409517 -1.022084 1.986984 0.996800 -6.353900 -17.814700 -0.638051 -3.655423 2.163769 0.084064 3.017733 -6.515291 -0.245980 -5.458562 17.570313 -2.381234 16.334426 17.032524 -0.084200 1.872100 -5.152300 18.787141 -1.250017 40.505201 0.944843 12.151622 2.446038 -2.556519 11.468481 12.044349 -1.462464 -2.316206 0.345746 -26.125261 -1.395349 11.019941 -7.129700 -2.396700 2.533800 0.875723 4.930990 1.807156 -64.667071 3.781121 69.433247 14.019807 -34.158842 -2.689288 -0.687409 -0.429447 13.287876 23.094746 -19.903135 -8.196100 -7.125000 0.000000 0.000000 -2.956400 9.208300 2.448600 5.097672 -0.664680 -0.410688 29.463198 71.284919 -6.044771 -146.781202 42.206595 -103.637530 0.048660 -1.308452 -16.044493 1.890590 9.632815 0.417200 7.125000 0.000000 0.000000 20.362200 -19.358500 13.323400 
0.728014 20.037443 5.118542 162.271222 20.174281 166.237580 -1.162308 0.005492 -2.934607 -1.793124 -27.723301 -89.346539 25.047958 17.724518 105.462929 0.429416 -1.157117 2.152125 0.918900 -6.107400 -17.096300 -0.648112 -3.653930 2.160785 -0.038237 2.851307 -6.700837 -0.270675 -5.542909 17.792647 -2.385390 16.470229 16.989851 -0.103800 2.077600 -5.720200 18.762942 -1.347257 40.631670 0.940134 12.060071 2.449323 -2.610039 11.435561 11.940639 -1.400887 -2.300087 0.575491 -26.138748 -1.389268 10.813010 -7.131800 -2.339500 2.411000 0.869807 4.931942 1.814003 -64.479995 3.774765 69.351080 13.850012 -33.934792 -2.629612 -0.694671 -0.437874 13.305476 22.997548 -19.897288 -8.154000 -7.125000 0.000000 0.000000 -3.014600 9.240200 2.495000 5.085732 -0.638762 -0.441041 29.805177 71.498268 -5.816071 -146.825635 42.154969 -103.683090 0.046298 -1.316805 -15.825559 1.828844 9.745227 0.409900 7.125000 0.000000 0.000000 20.305500 -19.244600 13.336700 
0.733241 20.035905 5.127972 162.234567 20.012624 166.254569 -1.140984 -0.001927 -2.942793 -1.684007 -27.703722 -89.774697 25.086922 17.726995 105.589551 0.454135 -1.325931 2.371773 0.853700 -5.892400 -16.472600 -0.655878 -3.652990 2.156541 -0.113941 2.714177 -6.852846 -0.291519 -5.610597 17.973013 -2.387347 16.551540 16.937306 -0.127100 2.297800 -6.329500 18.763212 -1.431963 40.701378 0.939856 11.986898 2.458320 -2.637148 11.412715 11.877793 -1.397126 -2.284884 0.777046 -26.064577 -1.376712 10.616522 -7.087400 -2.277900 2.301300 0.862127 4.936023 1.824026 -64.295474 3.759279 69.226930 13.695991 -33.746044 -2.579397 -0.704898 -0.442780 13.399961 22.821937 -19.950816 -8.108000 -7.125000 0.000000 0.000000 -3.127100 9.218200 2.589700 5.075349 -0.613233 -0.485092 30.253760 71.709707 -5.473339 -146.862463 42.098983 -103.726265 0.043458 -1.327211 -15.619638 1.751871 9.891750 0.400900 7.125000 0.000000 0.000000 20.235300 -19.096900 13.356000 
